HIERARCHY
ROOT locator2
{
  OFFSET 53.6172 30.1899 0.816905
  CHANNELS 6 Xposition Yposition Zposition Zrotation Xrotation Yrotation
  JOINT koshi
  {
    OFFSET 0 0 0
    CHANNELS 6 Xposition Yposition Zposition Zrotation Xrotation Yrotation
    JOINT sippo01
    {
      OFFSET 0 42.8363 -0.548134
      CHANNELS 6 Xposition Yposition Zposition Zrotation Xrotation Yrotation
      JOINT sippo02
      {
        OFFSET 0 44.0461 -3.28882
        CHANNELS 6 Xposition Yposition Zposition Zrotation Xrotation Yrotation
        JOINT sippo03
        {
          OFFSET 0 34.1929 -2.46662
          CHANNELS 6 Xposition Yposition Zposition Zrotation Xrotation Yrotation
          JOINT sippo04
          {
            OFFSET 0 30.0959 -1.75404
            CHANNELS 6 Xposition Yposition Zposition Zrotation Xrotation Yrotation
            JOINT sippo05
            {
              OFFSET 0 28.3637 -1.75404
              CHANNELS 6 Xposition Yposition Zposition Zrotation Xrotation Yrotation
              JOINT sippo06
              {
                OFFSET 0 31.6071 -3.2043
                CHANNELS 6 Xposition Yposition Zposition Zrotation Xrotation Yrotation
                End Site
                {
                  OFFSET 0 0 0
                }
              }
            }
          }
        }
      }
    }
    JOINT R_momo
    {
      OFFSET -27.891 13.5892 3.92723
      CHANNELS 6 Xposition Yposition Zposition Zrotation Xrotation Yrotation
      JOINT R_hiza
      {
        OFFSET 0 28.01 1.8232
        CHANNELS 6 Xposition Yposition Zposition Zrotation Xrotation Yrotation
        JOINT R_ashi
        {
          OFFSET 0 24.3992 -2.49174
          CHANNELS 6 Xposition Yposition Zposition Zrotation Xrotation Yrotation
          End Site
          {
            OFFSET 0 0 0
          }
        }
      }
    }
    JOINT L_momo
    {
      OFFSET 27.891 13.5892 3.92714
      CHANNELS 6 Xposition Yposition Zposition Zrotation Xrotation Yrotation
      JOINT L_hiza
      {
        OFFSET 0 28.0098 1.82319
        CHANNELS 6 Xposition Yposition Zposition Zrotation Xrotation Yrotation
        JOINT L_ashi
        {
          OFFSET 0 24.3992 -2.49171
          CHANNELS 6 Xposition Yposition Zposition Zrotation Xrotation Yrotation
          End Site
          {
            OFFSET 0 0 0
          }
        }
      }
    }
  }
  JOINT hara
  {
    OFFSET 0 2.15392 0
    CHANNELS 6 Xposition Yposition Zposition Zrotation Xrotation Yrotation
    JOINT mune
    {
      OFFSET 0 62.0609 0.472494
      CHANNELS 6 Xposition Yposition Zposition Zrotation Xrotation Yrotation
      JOINT R_kata
      {
        OFFSET 22.6695 9.65301 -5.3622
        CHANNELS 6 Xposition Yposition Zposition Zrotation Xrotation Yrotation
        JOINT R_hiji
        {
          OFFSET 0 25.813 1.69098
          CHANNELS 6 Xposition Yposition Zposition Zrotation Xrotation Yrotation
          JOINT R_te
          {
            OFFSET 0 28.5636 -0.966307
            CHANNELS 6 Xposition Yposition Zposition Zrotation Xrotation Yrotation
            End Site
            {
              OFFSET 0 0 0
            }
          }
        }
      }
      JOINT L_kata
      {
        OFFSET -22.6695 9.65298 -5.3622
        CHANNELS 6 Xposition Yposition Zposition Zrotation Xrotation Yrotation
        JOINT L_hiji
        {
          OFFSET 0 25.813 1.69102
          CHANNELS 6 Xposition Yposition Zposition Zrotation Xrotation Yrotation
          JOINT L_te
          {
            OFFSET 0 28.5636 -0.966295
            CHANNELS 6 Xposition Yposition Zposition Zrotation Xrotation Yrotation
            End Site
            {
              OFFSET 0 0 0
            }
          }
        }
      }
      JOINT kubi
      {
        OFFSET 0 23.1438 -0.944988
        CHANNELS 6 Xposition Yposition Zposition Zrotation Xrotation Yrotation
        JOINT atama
        {
          OFFSET 0 20.8625 4.12737
          CHANNELS 6 Xposition Yposition Zposition Zrotation Xrotation Yrotation
          JOINT ago
          {
            OFFSET 0 7.552 -7.58201
            CHANNELS 6 Xposition Yposition Zposition Zrotation Xrotation Yrotation
            End Site
            {
              OFFSET 0 0 0
            }
          }
        }
      }
    }
  }
}
MOTION
Frames:	5
Frame Time:	0.0333333
-4.98503 29.8859 -10.6184 -90 -3.50835e-015 -90 0 0 0 -145.791 3.22904 1.3149 -2.83122e-007 42.8363 -0.548134 -6.24626 -10.5021 2.68024 3.72381e-006 44.0461 -3.28882 -7.17455 10.2617 -0.345119 4.60976e-006 34.1929 -2.46661 -2.42667 3.68029 -2.36971 1.04604e-005 30.0959 -1.75404 -3.28229 3.52307 -0.327345 -7.98985e-007 28.3637 -1.75403 -1.05024 4.81934 4.63167 2.10806e-005 31.6072 -3.20431 -5.69956 -0.419979 -8.57322 -27.891 13.5892 3.92724 51.3686 -27.326 -45.8378 -4.83815e-007 28.01 1.8232 3.8837 -34.9144 -30.3797 2.6876e-006 24.3992 -2.49173 -107.452 83.5019 149.46 27.891 13.5892 3.92714 -162.807 -24.534 60.2362 -3.38103e-006 28.0098 1.82318 7.47988 -76.1838 -11.5728 -5.96749e-006 24.3992 -2.49172 76.4963 84.1704 -133.283 6.07921e-007 2.15392 -3.55271e-015 12.2909 5.84578 -11.4127 -2.68221e-007 62.0609 0.472496 -1.08892e-009 1.0047e-005 1.61513e-008 22.6695 9.653 -5.36221 -134.063 -27.7372 26.3499 -1.57226e-005 25.813 1.69098 0.128074 -46.2026 -2.82878 2.0727e-006 28.5636 -0.96631 59.0925 -43.0983 -74.9349 -22.6695 9.65299 -5.3622 97.1608 -35.0056 -32.1197 6.52924e-006 25.813 1.69103 -179.258 -68.9831 -168.604 -5.91094e-006 28.5636 -0.966296 -103.576 39.8288 179.745 1.93715e-007 23.1438 -0.944992 3.87584 -0.673775 -0.0601727 -9.6517e-007 20.8625 4.12737 5.31889 -2.11274 -0.523664 -9.6098e-007 7.55202 -7.58201 -1.13118e-005 6.9701 1.13044e-005 
-4.79942 29.942 -11.1588 -90 -3.50835e-015 -90 0 0 0 -146.993 3.23749 1.46077 -2.83122e-007 42.8363 -0.548134 -5.90261 -10.6795 2.69 3.60263e-006 44.0461 -3.28882 -6.42877 10.2123 -0.567205 4.24246e-006 34.1929 -2.46661 -2.56099 3.92511 -2.2536 1.01736e-005 30.0959 -1.75404 -3.42451 3.86475 -0.236 -1.0196e-006 28.3637 -1.75403 0.298784 3.2629 4.53031 2.06398e-005 31.6072 -3.20431 -3.81328 -0.603392 -8.47547 -27.891 13.5892 3.92724 53.5832 -27.1444 -47.7335 -2.52828e-008 28.01 1.8232 3.72953 -34.8975 -29.5554 2.8279e-006 24.3992 -2.49173 -110.557 83.1234 153.333 27.891 13.5892 3.92714 -163.098 -25.2275 59.1122 -3.3885e-006 28.0098 1.82318 7.28084 -76.7789 -10.7756 -6.08e-006 24.3992 -2.49172 94.7639 83.4713 -151.476 6.07921e-007 2.15392 -3.55271e-015 11.5099 5.86072 -10.5866 -2.68221e-007 62.0609 0.472496 -1.08895e-009 1.0047e-005 1.61513e-008 22.6695 9.653 -5.36221 -135.299 -24.6409 26.4194 -1.58561e-005 25.813 1.69098 0.140356 -51.8837 -2.59546 2.4973e-006 28.5636 -0.966309 53.1415 -39.6936 -79.1765 -22.6695 9.65299 -5.3622 102.459 -35.0879 -30.2957 7.61799e-006 25.813 1.69103 -179.279 -68.6573 -168.441 -6.50743e-006 28.5636 -0.966295 -100.242 38.2901 176.366 1.93715e-007 23.1438 -0.944992 3.8748 0.275799 1.8922 -9.12158e-007 20.8625 4.12737 5.5436 -0.983361 1.27283 -1.12678e-006 7.55202 -7.58201 -6.79377e-006 6.97065 1.07561e-005 
-4.61741 29.9969 -11.6886 -90 -3.50835e-015 -90 0 0 0 -148.173 3.24346 1.60352 -2.83122e-007 42.8363 -0.548134 -5.56713 -10.8527 2.70151 3.48416e-006 44.0461 -3.28882 -5.69866 10.162 -0.783207 3.87764e-006 34.1929 -2.46661 -2.69284 4.16492 -2.13871 9.8887e-006 30.0959 -1.75404 -3.56344 4.19768 -0.145297 -1.23861e-006 28.3637 -1.75403 1.61776 1.73538 4.5015 2.01698e-005 31.6072 -3.2043 -1.96301 -0.783422 -8.368 -27.891 13.5892 3.92724 55.7275 -26.8823 -49.5868 4.30827e-007 28.01 1.8232 3.66306 -34.8782 -28.6984 2.99517e-006 24.3992 -2.49172 -113.279 82.7347 156.808 27.891 13.5892 3.92714 -160.962 -25.6052 59.0541 -3.67824e-006 28.0098 1.82318 7.06898 -77.3626 -10.0109 -6.00223e-006 24.3992 -2.49172 108.16 82.2859 -164.827 6.07921e-007 2.15392 0 10.9304 5.68672 -9.66938 -2.68221e-007 62.0609 0.472496 -1.08891e-009 1.0047e-005 1.61519e-008 22.6695 9.653 -5.36221 -136.572 -20.8202 28.4478 -1.58169e-005 25.813 1.69098 0.16072 -57.953 -2.35893 2.81117e-006 28.5636 -0.966309 47.736 -35.1802 -83.2048 -22.6695 9.65299 -5.3622 105.913 -35.2736 -30.2109 8.27093e-006 25.813 1.69103 -179.299 -68.3389 -168.537 -6.88289e-006 28.5636 -0.966295 -97.3048 36.5758 173.253 1.93715e-007 23.1438 -0.944992 3.76738 1.09185 3.36283 -8.47184e-007 20.8625 4.12737 5.65445 0.000805826 2.57606 -1.2413e-006 7.55202 -7.58201 -1.18934e-010 7.02604 3.17818e-008 
-4.4336 29.9599 -11.1916 -90 -3.50835e-015 -90 0 0 0 -149.365 3.24707 1.74701 -2.83122e-007 42.8363 -0.548134 -5.23127 -11.1012 2.70808 3.36493e-006 44.0461 -3.28882 -4.96256 10.1095 -0.999547 3.50504e-006 34.1929 -2.46661 -3.51762 4.40341 -1.96866 9.73926e-006 30.0959 -1.75404 -3.7033 4.53224 -0.0652997 -1.34232e-006 28.3637 -1.75404 2.94871 0.193804 4.54404 1.98085e-005 31.6072 -3.2043 -0.0978953 -0.964425 -8.24767 -27.891 13.5892 3.92724 57.8595 -26.5332 -51.4594 8.90583e-007 28.01 1.8232 3.72141 -37.5397 -27.6205 2.9381e-006 24.3992 -2.49173 -115.74 82.3271 160.032 27.891 13.5892 3.92714 -158.791 -25.9413 59.035 -3.97265e-006 28.0098 1.82318 6.83513 -77.9517 -9.26003 -5.91462e-006 24.3992 -2.49172 111.438 81.2317 -168.01 6.07921e-007 2.15392 3.55271e-015 10.3428 5.32207 -8.71293 -2.68221e-007 62.0609 0.472496 -1.08892e-009 1.0047e-005 1.58584e-007 22.6695 9.653 -5.36221 -137.548 -16.9057 30.6605 -1.57444e-005 25.813 1.69098 0.191012 -64.0821 -2.1103 3.17315e-006 28.5636 -0.966308 43.3144 -30.0325 -85.9938 -22.6695 9.65299 -5.3622 109.489 -35.1607 -30.1316 8.85358e-006 25.813 1.69103 -179.319 -68.0175 -168.635 -7.12118e-006 28.5636 -0.966294 -93.6337 36.7584 170.271 1.93715e-007 23.1438 -0.944992 3.65943 1.68022 4.24962 -7.99078e-007 20.8625 4.12737 5.65495 0.746666 3.44434 -1.30574e-006 7.55202 -7.58201 -7.234e-007 4.15706 1.00315e-005 
-4.1732 29.9224 -10.6896 -90 -3.50835e-015 -90 0 0 0 -150.568 3.24842 1.8894 -2.83122e-007 42.8363 -0.548134 -4.88848 -11.3543 2.71786 3.24315e-006 44.0461 -3.28882 -4.21831 10.0547 -1.21688 3.12278e-006 34.1929 -2.46661 -4.3524 4.64339 -1.78957 9.58736e-006 30.0959 -1.75404 -3.84541 4.78724 0.0115692 -1.44524e-006 28.3637 -1.75404 4.29469 -1.35051 4.65914 1.9424e-005 31.6072 -3.2043 0.691336 -1.14731 -8.13614 -27.891 13.5892 3.92724 60.8894 -27.1293 -51.3127 1.34636e-006 28.01 1.8232 3.79276 -40.2274 -26.6639 2.87704e-006 24.3992 -2.49173 -124.529 81.3141 168.457 27.891 13.5892 3.92714 -156.514 -26.5712 59.217 -4.26955e-006 28.0098 1.82318 6.57471 -78.547 -8.52641 -5.81656e-006 24.3992 -2.49172 114.011 80.1447 -170.497 6.07921e-007 2.15392 -3.55271e-015 9.74497 4.85576 -7.64439 -2.68221e-007 62.0609 0.472496 -1.15279e-009 1.0047e-005 1.0034e-005 22.6695 9.653 -5.36221 -139.955 -13.2406 32.6299 -1.55022e-005 25.813 1.69098 0.241525 -70.2683 -1.83943 3.37476e-006 28.5636 -0.966308 37.9187 -24.9341 -88.7079 -22.6695 9.65299 -5.3622 113.204 -34.6819 -30.681 9.34943e-006 25.813 1.69103 -179.352 -67.2089 -168.748 -7.19284e-006 28.5636 -0.966293 -89.947 36.6228 167.255 1.93715e-007 23.1438 -0.944992 3.55219 2.03515 4.6913 -7.60846e-007 20.8625 4.12737 5.65471 1.24562 3.86564 -1.33614e-006 7.55202 -7.58201 -1.02367e-005 1.26077 1.0228e-005 
